<mxfile host="app.diagrams.net" modified="2022-05-18T11:37:54.700Z" agent="5.0 (Windows NT 10.0; Win64; x64) AppleWebKit/537.36 (KHTML, like Gecko) Chrome/101.0.4951.64 Safari/537.36 Edg/101.0.1210.47" etag="7O7FC6q32xj_uIfAuXh9" version="18.0.3" type="github">
  <diagram id="lJPxco9_FSO8eHjw9-y5" name="Page-1">
    <mxGraphModel dx="1808" dy="1901" grid="1" gridSize="10" guides="1" tooltips="1" connect="1" arrows="1" fold="1" page="1" pageScale="1" pageWidth="827" pageHeight="1169" math="0" shadow="0">
      <root>
        <mxCell id="0" />
        <mxCell id="1" parent="0" />
        <mxCell id="_Gxdi6DB40ClKm4aPdWx-1" value="Faculdade" style="whiteSpace=wrap;html=1;align=center;" vertex="1" parent="1">
          <mxGeometry x="550" y="175" width="100" height="40" as="geometry" />
        </mxCell>
        <mxCell id="_Gxdi6DB40ClKm4aPdWx-2" value="ID" style="ellipse;whiteSpace=wrap;html=1;align=center;fontStyle=4;" vertex="1" parent="1">
          <mxGeometry x="550" y="215" width="100" height="40" as="geometry" />
        </mxCell>
        <mxCell id="_Gxdi6DB40ClKm4aPdWx-3" value="Bloco" style="ellipse;whiteSpace=wrap;html=1;align=center;fontStyle=4;" vertex="1" parent="1">
          <mxGeometry x="550" y="255" width="100" height="40" as="geometry" />
        </mxCell>
        <mxCell id="_Gxdi6DB40ClKm4aPdWx-4" value="Nº professores" style="ellipse;whiteSpace=wrap;html=1;align=center;" vertex="1" parent="1">
          <mxGeometry x="550" y="295" width="100" height="40" as="geometry" />
        </mxCell>
        <mxCell id="_Gxdi6DB40ClKm4aPdWx-5" value="Nº alunos" style="ellipse;whiteSpace=wrap;html=1;align=center;" vertex="1" parent="1">
          <mxGeometry x="550" y="335" width="100" height="40" as="geometry" />
        </mxCell>
        <mxCell id="_Gxdi6DB40ClKm4aPdWx-6" value="Orçamento" style="ellipse;whiteSpace=wrap;html=1;align=center;" vertex="1" parent="1">
          <mxGeometry x="550" y="375" width="100" height="40" as="geometry" />
        </mxCell>
        <mxCell id="_Gxdi6DB40ClKm4aPdWx-7" value="Disciplina" style="whiteSpace=wrap;html=1;align=center;" vertex="1" parent="1">
          <mxGeometry x="950" y="570" width="100" height="40" as="geometry" />
        </mxCell>
        <mxCell id="_Gxdi6DB40ClKm4aPdWx-8" value="Sigla" style="ellipse;whiteSpace=wrap;html=1;align=center;" vertex="1" parent="1">
          <mxGeometry x="950" y="450" width="100" height="40" as="geometry" />
        </mxCell>
        <mxCell id="_Gxdi6DB40ClKm4aPdWx-9" value="Nome&lt;span style=&quot;color: rgba(0, 0, 0, 0); font-family: monospace; font-size: 0px; text-align: start;&quot;&gt;%3CmxGraphModel%3E%3Croot%3E%3CmxCell%20id%3D%220%22%2F%3E%3CmxCell%20id%3D%221%22%20parent%3D%220%22%2F%3E%3CmxCell%20id%3D%222%22%20value%3D%22Sigla%22%20style%3D%22ellipse%3BwhiteSpace%3Dwrap%3Bhtml%3D1%3Balign%3Dcenter%3B%22%20vertex%3D%221%22%20parent%3D%221%22%3E%3CmxGeometry%20x%3D%22320%22%20y%3D%2290%22%20width%3D%22100%22%20height%3D%2240%22%20as%3D%22geometry%22%2F%3E%3C%2FmxCell%3E%3C%2Froot%3E%3C%2FmxGraphModel%3E&lt;/span&gt;&lt;span style=&quot;color: rgba(0, 0, 0, 0); font-family: monospace; font-size: 0px; text-align: start;&quot;&gt;%3CmxGraphModel%3E%3Croot%3E%3CmxCell%20id%3D%220%22%2F%3E%3CmxCell%20id%3D%221%22%20parent%3D%220%22%2F%3E%3CmxCell%20id%3D%222%22%20value%3D%22Sigla%22%20style%3D%22ellipse%3BwhiteSpace%3Dwrap%3Bhtml%3D1%3Balign%3Dcenter%3B%22%20vertex%3D%221%22%20parent%3D%221%22%3E%3CmxGeometry%20x%3D%22320%22%20y%3D%2290%22%20width%3D%22100%22%20height%3D%2240%22%20as%3D%22geometry%22%2F%3E%3C%2FmxCell%3E%3C%2Froot%3E%3C%2FmxGraphModel%3E&lt;/span&gt;" style="ellipse;whiteSpace=wrap;html=1;align=center;" vertex="1" parent="1">
          <mxGeometry x="950" y="490" width="100" height="40" as="geometry" />
        </mxCell>
        <mxCell id="_Gxdi6DB40ClKm4aPdWx-10" value="Nº créditos" style="ellipse;whiteSpace=wrap;html=1;align=center;" vertex="1" parent="1">
          <mxGeometry x="950" y="530" width="100" height="40" as="geometry" />
        </mxCell>
        <mxCell id="_Gxdi6DB40ClKm4aPdWx-11" value="Pré-Requisito" style="shape=rhombus;perimeter=rhombusPerimeter;whiteSpace=wrap;html=1;align=center;" vertex="1" parent="1">
          <mxGeometry x="940" y="770" width="120" height="60" as="geometry" />
        </mxCell>
        <mxCell id="_Gxdi6DB40ClKm4aPdWx-12" value="" style="endArrow=none;html=1;rounded=0;exitX=0;exitY=1;exitDx=0;exitDy=0;entryX=0;entryY=0.5;entryDx=0;entryDy=0;" edge="1" parent="1" source="_Gxdi6DB40ClKm4aPdWx-7" target="_Gxdi6DB40ClKm4aPdWx-11">
          <mxGeometry relative="1" as="geometry">
            <mxPoint x="1000" y="720" as="sourcePoint" />
            <mxPoint x="1160" y="720" as="targetPoint" />
          </mxGeometry>
        </mxCell>
        <mxCell id="_Gxdi6DB40ClKm4aPdWx-13" value="" style="endArrow=none;html=1;rounded=0;exitX=1;exitY=1;exitDx=0;exitDy=0;entryX=1;entryY=0.5;entryDx=0;entryDy=0;" edge="1" parent="1" source="_Gxdi6DB40ClKm4aPdWx-7" target="_Gxdi6DB40ClKm4aPdWx-11">
          <mxGeometry relative="1" as="geometry">
            <mxPoint x="960" y="620" as="sourcePoint" />
            <mxPoint x="950" y="760" as="targetPoint" />
          </mxGeometry>
        </mxCell>
        <mxCell id="_Gxdi6DB40ClKm4aPdWx-14" value="Tem pré-requisito" style="text;html=1;strokeColor=none;fillColor=none;align=center;verticalAlign=middle;whiteSpace=wrap;rounded=0;" vertex="1" parent="1">
          <mxGeometry x="890" y="700" width="60" height="30" as="geometry" />
        </mxCell>
        <mxCell id="_Gxdi6DB40ClKm4aPdWx-15" value="N" style="text;html=1;strokeColor=none;fillColor=none;align=center;verticalAlign=middle;whiteSpace=wrap;rounded=0;" vertex="1" parent="1">
          <mxGeometry x="900" y="745" width="60" height="30" as="geometry" />
        </mxCell>
        <mxCell id="_Gxdi6DB40ClKm4aPdWx-16" value="É pré-requisito" style="text;html=1;strokeColor=none;fillColor=none;align=center;verticalAlign=middle;whiteSpace=wrap;rounded=0;" vertex="1" parent="1">
          <mxGeometry x="1050" y="700" width="60" height="30" as="geometry" />
        </mxCell>
        <mxCell id="_Gxdi6DB40ClKm4aPdWx-17" value="1" style="text;html=1;strokeColor=none;fillColor=none;align=center;verticalAlign=middle;whiteSpace=wrap;rounded=0;" vertex="1" parent="1">
          <mxGeometry x="1040" y="740" width="60" height="30" as="geometry" />
        </mxCell>
        <mxCell id="_Gxdi6DB40ClKm4aPdWx-18" value="Professor" style="whiteSpace=wrap;html=1;align=center;" vertex="1" parent="1">
          <mxGeometry x="914" y="175" width="100" height="40" as="geometry" />
        </mxCell>
        <mxCell id="_Gxdi6DB40ClKm4aPdWx-19" value="ID" style="ellipse;whiteSpace=wrap;html=1;align=center;fontStyle=4;" vertex="1" parent="1">
          <mxGeometry x="914" y="215" width="100" height="40" as="geometry" />
        </mxCell>
        <mxCell id="_Gxdi6DB40ClKm4aPdWx-20" value="Nome" style="ellipse;whiteSpace=wrap;html=1;align=center;" vertex="1" parent="1">
          <mxGeometry x="914" y="255" width="100" height="40" as="geometry" />
        </mxCell>
        <mxCell id="_Gxdi6DB40ClKm4aPdWx-21" value="Data Nascimento" style="ellipse;whiteSpace=wrap;html=1;align=center;" vertex="1" parent="1">
          <mxGeometry x="914" y="295" width="100" height="40" as="geometry" />
        </mxCell>
        <mxCell id="_Gxdi6DB40ClKm4aPdWx-22" value="Salário" style="ellipse;whiteSpace=wrap;html=1;align=center;" vertex="1" parent="1">
          <mxGeometry x="730" y="105" width="100" height="40" as="geometry" />
        </mxCell>
        <mxCell id="_Gxdi6DB40ClKm4aPdWx-97" style="edgeStyle=orthogonalEdgeStyle;rounded=0;orthogonalLoop=1;jettySize=auto;html=1;exitX=0.5;exitY=0;exitDx=0;exitDy=0;entryX=0;entryY=0.5;entryDx=0;entryDy=0;endArrow=none;endFill=0;strokeWidth=1;" edge="1" parent="1" source="_Gxdi6DB40ClKm4aPdWx-23" target="_Gxdi6DB40ClKm4aPdWx-96">
          <mxGeometry relative="1" as="geometry" />
        </mxCell>
        <mxCell id="_Gxdi6DB40ClKm4aPdWx-23" value="Aluno" style="whiteSpace=wrap;html=1;align=center;" vertex="1" parent="1">
          <mxGeometry x="190" y="175" width="100" height="40" as="geometry" />
        </mxCell>
        <mxCell id="_Gxdi6DB40ClKm4aPdWx-24" value="Nome" style="ellipse;whiteSpace=wrap;html=1;align=center;" vertex="1" parent="1">
          <mxGeometry x="190" y="255" width="100" height="40" as="geometry" />
        </mxCell>
        <mxCell id="_Gxdi6DB40ClKm4aPdWx-25" value="Data Nascimento" style="ellipse;whiteSpace=wrap;html=1;align=center;" vertex="1" parent="1">
          <mxGeometry x="190" y="295" width="100" height="40" as="geometry" />
        </mxCell>
        <mxCell id="_Gxdi6DB40ClKm4aPdWx-26" value="CRA" style="ellipse;whiteSpace=wrap;html=1;align=center;" vertex="1" parent="1">
          <mxGeometry x="190" y="335" width="100" height="40" as="geometry" />
        </mxCell>
        <mxCell id="_Gxdi6DB40ClKm4aPdWx-27" value="ID" style="ellipse;whiteSpace=wrap;html=1;align=center;fontStyle=4;" vertex="1" parent="1">
          <mxGeometry x="190" y="215" width="100" height="40" as="geometry" />
        </mxCell>
        <mxCell id="_Gxdi6DB40ClKm4aPdWx-28" value="Telefone" style="ellipse;shape=doubleEllipse;margin=3;whiteSpace=wrap;html=1;align=center;" vertex="1" parent="1">
          <mxGeometry x="190" y="375" width="100" height="40" as="geometry" />
        </mxCell>
        <mxCell id="_Gxdi6DB40ClKm4aPdWx-29" value="Diretor" style="shape=rhombus;perimeter=rhombusPerimeter;whiteSpace=wrap;html=1;align=center;" vertex="1" parent="1">
          <mxGeometry x="720" y="35" width="120" height="60" as="geometry" />
        </mxCell>
        <mxCell id="_Gxdi6DB40ClKm4aPdWx-30" value="" style="endArrow=none;html=1;rounded=0;exitX=0;exitY=0.5;exitDx=0;exitDy=0;entryX=1;entryY=0;entryDx=0;entryDy=0;strokeWidth=4;" edge="1" parent="1" source="_Gxdi6DB40ClKm4aPdWx-29" target="_Gxdi6DB40ClKm4aPdWx-1">
          <mxGeometry relative="1" as="geometry">
            <mxPoint x="830" y="255" as="sourcePoint" />
            <mxPoint x="820" y="395" as="targetPoint" />
          </mxGeometry>
        </mxCell>
        <mxCell id="_Gxdi6DB40ClKm4aPdWx-31" value="" style="endArrow=none;html=1;rounded=0;exitX=1;exitY=0.5;exitDx=0;exitDy=0;entryX=0;entryY=0;entryDx=0;entryDy=0;" edge="1" parent="1" source="_Gxdi6DB40ClKm4aPdWx-29" target="_Gxdi6DB40ClKm4aPdWx-18">
          <mxGeometry relative="1" as="geometry">
            <mxPoint x="830" y="115" as="sourcePoint" />
            <mxPoint x="780" y="175" as="targetPoint" />
          </mxGeometry>
        </mxCell>
        <mxCell id="_Gxdi6DB40ClKm4aPdWx-32" value="1" style="text;html=1;strokeColor=none;fillColor=none;align=center;verticalAlign=middle;whiteSpace=wrap;rounded=0;" vertex="1" parent="1">
          <mxGeometry x="650" y="85" width="60" height="30" as="geometry" />
        </mxCell>
        <mxCell id="_Gxdi6DB40ClKm4aPdWx-36" value="N" style="text;html=1;strokeColor=none;fillColor=none;align=center;verticalAlign=middle;whiteSpace=wrap;rounded=0;" vertex="1" parent="1">
          <mxGeometry x="840" y="75" width="60" height="30" as="geometry" />
        </mxCell>
        <mxCell id="_Gxdi6DB40ClKm4aPdWx-38" value="Vínculo" style="shape=rhombus;perimeter=rhombusPerimeter;whiteSpace=wrap;html=1;align=center;" vertex="1" parent="1">
          <mxGeometry x="720" y="190" width="120" height="60" as="geometry" />
        </mxCell>
        <mxCell id="_Gxdi6DB40ClKm4aPdWx-39" value="" style="endArrow=none;html=1;rounded=0;exitX=0;exitY=0.5;exitDx=0;exitDy=0;entryX=1;entryY=0.5;entryDx=0;entryDy=0;" edge="1" parent="1" source="_Gxdi6DB40ClKm4aPdWx-18" target="_Gxdi6DB40ClKm4aPdWx-38">
          <mxGeometry relative="1" as="geometry">
            <mxPoint x="850" y="75" as="sourcePoint" />
            <mxPoint x="924" y="185" as="targetPoint" />
          </mxGeometry>
        </mxCell>
        <mxCell id="_Gxdi6DB40ClKm4aPdWx-40" value="" style="endArrow=none;html=1;rounded=0;exitX=0;exitY=0.5;exitDx=0;exitDy=0;entryX=1;entryY=0.5;entryDx=0;entryDy=0;" edge="1" parent="1" source="_Gxdi6DB40ClKm4aPdWx-38">
          <mxGeometry relative="1" as="geometry">
            <mxPoint x="724" y="194.33" as="sourcePoint" />
            <mxPoint x="650" y="194.33" as="targetPoint" />
          </mxGeometry>
        </mxCell>
        <mxCell id="_Gxdi6DB40ClKm4aPdWx-44" value="1" style="text;html=1;strokeColor=none;fillColor=none;align=center;verticalAlign=middle;whiteSpace=wrap;rounded=0;" vertex="1" parent="1">
          <mxGeometry x="670" y="185" width="60" height="30" as="geometry" />
        </mxCell>
        <mxCell id="_Gxdi6DB40ClKm4aPdWx-45" value="N" style="text;html=1;strokeColor=none;fillColor=none;align=center;verticalAlign=middle;whiteSpace=wrap;rounded=0;" vertex="1" parent="1">
          <mxGeometry x="840" y="185" width="60" height="30" as="geometry" />
        </mxCell>
        <mxCell id="_Gxdi6DB40ClKm4aPdWx-46" value="É" style="text;html=1;strokeColor=none;fillColor=none;align=center;verticalAlign=middle;whiteSpace=wrap;rounded=0;" vertex="1" parent="1">
          <mxGeometry x="820" y="95" width="60" height="30" as="geometry" />
        </mxCell>
        <mxCell id="_Gxdi6DB40ClKm4aPdWx-47" value="Tem" style="text;html=1;strokeColor=none;fillColor=none;align=center;verticalAlign=middle;whiteSpace=wrap;rounded=0;" vertex="1" parent="1">
          <mxGeometry x="690" y="95" width="60" height="30" as="geometry" />
        </mxCell>
        <mxCell id="_Gxdi6DB40ClKm4aPdWx-49" value="" style="endArrow=none;html=1;rounded=0;strokeWidth=1;exitX=0.5;exitY=0;exitDx=0;exitDy=0;entryX=0.5;entryY=1;entryDx=0;entryDy=0;" edge="1" parent="1" source="_Gxdi6DB40ClKm4aPdWx-38" target="_Gxdi6DB40ClKm4aPdWx-22">
          <mxGeometry relative="1" as="geometry">
            <mxPoint x="780" y="160" as="sourcePoint" />
            <mxPoint x="780" y="150" as="targetPoint" />
          </mxGeometry>
        </mxCell>
        <mxCell id="_Gxdi6DB40ClKm4aPdWx-54" value="Vínculo" style="shape=rhombus;perimeter=rhombusPerimeter;whiteSpace=wrap;html=1;align=center;" vertex="1" parent="1">
          <mxGeometry x="360" y="165" width="120" height="60" as="geometry" />
        </mxCell>
        <mxCell id="_Gxdi6DB40ClKm4aPdWx-55" value="" style="endArrow=none;html=1;rounded=0;exitX=0;exitY=0.5;exitDx=0;exitDy=0;entryX=1;entryY=0.5;entryDx=0;entryDy=0;" edge="1" parent="1">
          <mxGeometry relative="1" as="geometry">
            <mxPoint x="364" y="194.33000000000004" as="sourcePoint" />
            <mxPoint x="290" y="194.33000000000004" as="targetPoint" />
          </mxGeometry>
        </mxCell>
        <mxCell id="_Gxdi6DB40ClKm4aPdWx-56" value="N" style="text;html=1;strokeColor=none;fillColor=none;align=center;verticalAlign=middle;whiteSpace=wrap;rounded=0;" vertex="1" parent="1">
          <mxGeometry x="300" y="165" width="60" height="30" as="geometry" />
        </mxCell>
        <mxCell id="_Gxdi6DB40ClKm4aPdWx-57" value="1" style="text;html=1;strokeColor=none;fillColor=none;align=center;verticalAlign=middle;whiteSpace=wrap;rounded=0;" vertex="1" parent="1">
          <mxGeometry x="480" y="165" width="60" height="30" as="geometry" />
        </mxCell>
        <mxCell id="_Gxdi6DB40ClKm4aPdWx-58" value="" style="endArrow=none;html=1;rounded=0;exitX=0;exitY=0.5;exitDx=0;exitDy=0;entryX=1;entryY=0.5;entryDx=0;entryDy=0;" edge="1" parent="1">
          <mxGeometry relative="1" as="geometry">
            <mxPoint x="550" y="193.67000000000002" as="sourcePoint" />
            <mxPoint x="476" y="193.67000000000002" as="targetPoint" />
          </mxGeometry>
        </mxCell>
        <mxCell id="_Gxdi6DB40ClKm4aPdWx-60" value="Turma" style="whiteSpace=wrap;html=1;align=center;" vertex="1" parent="1">
          <mxGeometry x="590" y="570" width="100" height="40" as="geometry" />
        </mxCell>
        <mxCell id="_Gxdi6DB40ClKm4aPdWx-61" value="ID" style="ellipse;whiteSpace=wrap;html=1;align=center;fontStyle=4;" vertex="1" parent="1">
          <mxGeometry x="590" y="610" width="100" height="40" as="geometry" />
        </mxCell>
        <mxCell id="_Gxdi6DB40ClKm4aPdWx-62" value="Semestre" style="ellipse;whiteSpace=wrap;html=1;align=center;" vertex="1" parent="1">
          <mxGeometry x="590" y="650" width="100" height="40" as="geometry" />
        </mxCell>
        <mxCell id="_Gxdi6DB40ClKm4aPdWx-63" value="Ano" style="ellipse;whiteSpace=wrap;html=1;align=center;" vertex="1" parent="1">
          <mxGeometry x="590" y="690" width="100" height="40" as="geometry" />
        </mxCell>
        <mxCell id="_Gxdi6DB40ClKm4aPdWx-64" value="Ministrada" style="shape=rhombus;perimeter=rhombusPerimeter;whiteSpace=wrap;html=1;align=center;" vertex="1" parent="1">
          <mxGeometry x="760" y="560" width="120" height="60" as="geometry" />
        </mxCell>
        <mxCell id="_Gxdi6DB40ClKm4aPdWx-70" value="Local" style="ellipse;whiteSpace=wrap;html=1;align=center;" vertex="1" parent="1">
          <mxGeometry x="810" y="645" width="100" height="40" as="geometry" />
        </mxCell>
        <mxCell id="_Gxdi6DB40ClKm4aPdWx-71" value="" style="endArrow=none;html=1;rounded=0;strokeWidth=1;exitX=1;exitY=1;exitDx=0;exitDy=0;entryX=1;entryY=0;entryDx=0;entryDy=0;" edge="1" parent="1" source="_Gxdi6DB40ClKm4aPdWx-64" target="_Gxdi6DB40ClKm4aPdWx-70">
          <mxGeometry relative="1" as="geometry">
            <mxPoint x="990" y="460" as="sourcePoint" />
            <mxPoint x="1150" y="460" as="targetPoint" />
          </mxGeometry>
        </mxCell>
        <mxCell id="_Gxdi6DB40ClKm4aPdWx-72" value="Tem" style="shape=rhombus;perimeter=rhombusPerimeter;whiteSpace=wrap;html=1;align=center;" vertex="1" parent="1">
          <mxGeometry x="750" y="375" width="120" height="60" as="geometry" />
        </mxCell>
        <mxCell id="_Gxdi6DB40ClKm4aPdWx-73" value="" style="endArrow=none;html=1;rounded=0;strokeWidth=1;exitX=0;exitY=1;exitDx=0;exitDy=0;entryX=0.5;entryY=0;entryDx=0;entryDy=0;" edge="1" parent="1" source="_Gxdi6DB40ClKm4aPdWx-18" target="_Gxdi6DB40ClKm4aPdWx-72">
          <mxGeometry relative="1" as="geometry">
            <mxPoint x="990" y="460" as="sourcePoint" />
            <mxPoint x="1150" y="460" as="targetPoint" />
          </mxGeometry>
        </mxCell>
        <mxCell id="_Gxdi6DB40ClKm4aPdWx-74" value="" style="endArrow=none;html=1;rounded=0;strokeWidth=1;exitX=0.5;exitY=1;exitDx=0;exitDy=0;entryX=1;entryY=0;entryDx=0;entryDy=0;" edge="1" parent="1" source="_Gxdi6DB40ClKm4aPdWx-72" target="_Gxdi6DB40ClKm4aPdWx-60">
          <mxGeometry relative="1" as="geometry">
            <mxPoint x="990" y="460" as="sourcePoint" />
            <mxPoint x="940" y="560" as="targetPoint" />
          </mxGeometry>
        </mxCell>
        <mxCell id="_Gxdi6DB40ClKm4aPdWx-76" value="N" style="text;html=1;strokeColor=none;fillColor=none;align=center;verticalAlign=middle;whiteSpace=wrap;rounded=0;" vertex="1" parent="1">
          <mxGeometry x="810" y="290" width="60" height="30" as="geometry" />
        </mxCell>
        <mxCell id="_Gxdi6DB40ClKm4aPdWx-79" value="N" style="text;html=1;strokeColor=none;fillColor=none;align=center;verticalAlign=middle;whiteSpace=wrap;rounded=0;" vertex="1" parent="1">
          <mxGeometry x="710" y="480" width="60" height="30" as="geometry" />
        </mxCell>
        <mxCell id="_Gxdi6DB40ClKm4aPdWx-80" value="1" style="text;html=1;strokeColor=none;fillColor=none;align=center;verticalAlign=middle;whiteSpace=wrap;rounded=0;" vertex="1" parent="1">
          <mxGeometry x="870" y="490" width="60" height="30" as="geometry" />
        </mxCell>
        <mxCell id="_Gxdi6DB40ClKm4aPdWx-81" value="Matricular" style="shape=rhombus;perimeter=rhombusPerimeter;whiteSpace=wrap;html=1;align=center;" vertex="1" parent="1">
          <mxGeometry x="300" y="560" width="120" height="60" as="geometry" />
        </mxCell>
        <mxCell id="_Gxdi6DB40ClKm4aPdWx-83" value="" style="endArrow=none;html=1;rounded=0;strokeWidth=1;" edge="1" parent="1">
          <mxGeometry relative="1" as="geometry">
            <mxPoint x="90" y="195" as="sourcePoint" />
            <mxPoint x="90" y="590" as="targetPoint" />
          </mxGeometry>
        </mxCell>
        <mxCell id="_Gxdi6DB40ClKm4aPdWx-87" value="" style="endArrow=none;html=1;rounded=0;strokeWidth=1;exitX=1;exitY=0.5;exitDx=0;exitDy=0;" edge="1" parent="1" source="_Gxdi6DB40ClKm4aPdWx-60" target="_Gxdi6DB40ClKm4aPdWx-64">
          <mxGeometry relative="1" as="geometry">
            <mxPoint x="700" y="730" as="sourcePoint" />
            <mxPoint x="860" y="730" as="targetPoint" />
          </mxGeometry>
        </mxCell>
        <mxCell id="_Gxdi6DB40ClKm4aPdWx-88" value="" style="endArrow=none;html=1;rounded=0;strokeWidth=1;exitX=1;exitY=0.5;exitDx=0;exitDy=0;" edge="1" parent="1">
          <mxGeometry relative="1" as="geometry">
            <mxPoint x="880" y="589.33" as="sourcePoint" />
            <mxPoint x="950" y="589.33" as="targetPoint" />
          </mxGeometry>
        </mxCell>
        <mxCell id="_Gxdi6DB40ClKm4aPdWx-89" value="" style="endArrow=none;html=1;rounded=0;strokeWidth=1;exitX=0.5;exitY=1;exitDx=0;exitDy=0;entryX=0;entryY=0;entryDx=0;entryDy=0;" edge="1" parent="1" source="_Gxdi6DB40ClKm4aPdWx-72" target="_Gxdi6DB40ClKm4aPdWx-7">
          <mxGeometry relative="1" as="geometry">
            <mxPoint x="700" y="730" as="sourcePoint" />
            <mxPoint x="860" y="730" as="targetPoint" />
          </mxGeometry>
        </mxCell>
        <mxCell id="_Gxdi6DB40ClKm4aPdWx-90" value="" style="endArrow=none;html=1;rounded=0;strokeWidth=1;" edge="1" parent="1">
          <mxGeometry relative="1" as="geometry">
            <mxPoint x="90" y="589" as="sourcePoint" />
            <mxPoint x="300" y="589.33" as="targetPoint" />
          </mxGeometry>
        </mxCell>
        <mxCell id="_Gxdi6DB40ClKm4aPdWx-91" value="" style="endArrow=none;html=1;rounded=0;strokeWidth=1;entryX=0;entryY=0.5;entryDx=0;entryDy=0;" edge="1" parent="1" target="_Gxdi6DB40ClKm4aPdWx-60">
          <mxGeometry relative="1" as="geometry">
            <mxPoint x="420" y="589.33" as="sourcePoint" />
            <mxPoint x="580" y="589.33" as="targetPoint" />
          </mxGeometry>
        </mxCell>
        <mxCell id="_Gxdi6DB40ClKm4aPdWx-92" value="" style="endArrow=none;html=1;rounded=0;strokeWidth=1;" edge="1" parent="1">
          <mxGeometry relative="1" as="geometry">
            <mxPoint x="90" y="194" as="sourcePoint" />
            <mxPoint x="190" y="194.32999999999998" as="targetPoint" />
          </mxGeometry>
        </mxCell>
        <mxCell id="_Gxdi6DB40ClKm4aPdWx-98" style="edgeStyle=orthogonalEdgeStyle;rounded=0;orthogonalLoop=1;jettySize=auto;html=1;exitX=1;exitY=0.5;exitDx=0;exitDy=0;entryX=0.5;entryY=0;entryDx=0;entryDy=0;endArrow=none;endFill=0;strokeWidth=1;" edge="1" parent="1" source="_Gxdi6DB40ClKm4aPdWx-96" target="_Gxdi6DB40ClKm4aPdWx-18">
          <mxGeometry relative="1" as="geometry" />
        </mxCell>
        <mxCell id="_Gxdi6DB40ClKm4aPdWx-96" value="Iniciação Científica" style="shape=rhombus;perimeter=rhombusPerimeter;whiteSpace=wrap;html=1;align=center;" vertex="1" parent="1">
          <mxGeometry x="500" y="-50" width="120" height="60" as="geometry" />
        </mxCell>
        <mxCell id="_Gxdi6DB40ClKm4aPdWx-99" value="1" style="text;html=1;strokeColor=none;fillColor=none;align=center;verticalAlign=middle;whiteSpace=wrap;rounded=0;" vertex="1" parent="1">
          <mxGeometry x="790" y="-50" width="60" height="30" as="geometry" />
        </mxCell>
        <mxCell id="_Gxdi6DB40ClKm4aPdWx-100" value="8" style="text;html=1;strokeColor=none;fillColor=none;align=center;verticalAlign=middle;whiteSpace=wrap;rounded=0;" vertex="1" parent="1">
          <mxGeometry x="300" y="-50" width="60" height="30" as="geometry" />
        </mxCell>
      </root>
    </mxGraphModel>
  </diagram>
</mxfile>
